<svg width="137" height="155" viewBox="0 0 137 155" fill="none" xmlns="http://www.w3.org/2000/svg">
<path fill-rule="evenodd" clip-rule="evenodd" d="M3.0356 37.4908C2.8554 37.3869 2.74371 37.1944 2.74371 36.9865C2.74371 36.7786 2.8554 36.5867 3.0356 36.4827L64.727 0.982806C67.0047 -0.327928 69.8114 -0.327928 72.0898 0.982806L133.78 36.4827C133.961 36.5867 134.072 36.7786 134.072 36.9865C134.072 37.1944 133.961 37.3869 133.78 37.4908L68.6999 74.9406C68.5197 75.0445 68.297 75.0445 68.1162 74.9406L3.0356 37.4908ZM135.94 41.2194C136.121 41.1155 136.343 41.1155 136.524 41.2194C136.705 41.3234 136.816 41.5153 136.816 41.7232C136.817 49.3422 136.817 97.971 136.817 112.723C136.817 115.345 135.413 117.767 133.135 119.078L71.4443 154.578C71.2635 154.682 71.0407 154.682 70.8599 154.578C70.6797 154.474 70.5679 154.282 70.5679 154.074V79.088C70.5679 78.9822 70.597 78.8789 70.6519 78.7885C73.0321 77.4193 125.123 47.4441 135.94 41.2194ZM66.2481 154.074C66.2481 154.282 66.1371 154.474 65.9563 154.578C65.7754 154.682 65.5533 154.682 65.3724 154.578L3.6811 119.078C1.40332 117.767 0 115.345 0 112.723V41.7232C0 41.5153 0.111076 41.3234 0.291891 41.2194C0.472707 41.1155 0.695495 41.1155 0.875693 41.2194L65.9563 78.6698C66.1371 78.7737 66.2481 78.9657 66.2481 79.1735V154.074ZM4.77092 115.457L22.0298 125.389C23.0623 125.983 24.3848 125.63 24.9803 124.601C25.5764 123.572 25.2222 122.254 24.1898 121.66L6.93083 111.728C5.8984 111.134 4.57593 111.487 3.98041 112.516C3.38428 113.545 3.73849 114.864 4.77092 115.457Z" fill="#F3F3F3"/>
</svg>
