<?xml version="1.0" encoding="UTF-8" standalone="no"?>
<!DOCTYPE svg PUBLIC "-//W3C//DTD SVG 1.1//EN" "http://www.w3.org/Graphics/SVG/1.1/DTD/svg11.dtd">
<svg width="100%" height="100%" viewBox="0 0 222 252" version="1.1" xmlns="http://www.w3.org/2000/svg" xmlns:xlink="http://www.w3.org/1999/xlink" xml:space="preserve" xmlns:serif="http://www.serif.com/" style="fill-rule:evenodd;clip-rule:evenodd;stroke-linejoin:round;stroke-miterlimit:2;">
    <g transform="matrix(1,0,0,1,-443.405,-385.846)">
        <path d="M448.324,446.799C448.032,446.63 447.851,446.317 447.851,445.979C447.851,445.641 448.032,445.329 448.324,445.16L548.291,387.444C551.982,385.313 556.53,385.313 560.222,387.444L660.188,445.16C660.481,445.329 660.661,445.641 660.661,445.979C660.661,446.317 660.481,446.63 660.188,446.799L554.729,507.685C554.437,507.854 554.076,507.854 553.783,507.685L448.324,446.799ZM663.688,452.861C663.98,452.692 664.341,452.692 664.634,452.861C664.927,453.03 665.107,453.342 665.107,453.68C665.108,466.067 665.108,545.128 665.108,569.112C665.108,573.374 662.834,577.313 659.142,579.444L559.176,637.16C558.883,637.329 558.522,637.329 558.229,637.16C557.937,636.991 557.756,636.678 557.756,636.34L557.756,514.428C557.756,514.256 557.803,514.088 557.892,513.941C561.749,511.715 646.159,462.981 663.688,452.861ZM550.756,636.34C550.756,636.678 550.576,636.991 550.283,637.16C549.99,637.329 549.63,637.329 549.337,637.16L449.37,579.444C445.679,577.313 443.405,573.374 443.405,569.112L443.405,453.68C443.405,453.342 443.585,453.03 443.878,452.861C444.171,452.692 444.532,452.692 444.824,452.861L550.283,513.748C550.576,513.917 550.756,514.229 550.756,514.567L550.756,636.34ZM451.136,573.557L479.103,589.705C480.776,590.67 482.919,590.096 483.884,588.424C484.85,586.751 484.276,584.608 482.603,583.642L454.636,567.495C452.963,566.529 450.82,567.103 449.855,568.776C448.889,570.449 449.463,572.592 451.136,573.557Z" style="fill:rgb(97,132,216);"/>
    </g>
</svg>
